<?xml version="1.0" standalone="no"?>
<!DOCTYPE svg PUBLIC "-//W3C//DTD SVG 20010904//EN"
 "http://www.w3.org/TR/2001/REC-SVG-20010904/DTD/svg10.dtd">
<svg version="1.0" xmlns="http://www.w3.org/2000/svg"
 width="1024.000000pt" height="1024.000000pt" viewBox="0 0 1024.000000 1024.000000"
 preserveAspectRatio="xMidYMid meet">
<metadata>
Created by potrace 1.14, written by Peter Selinger 2001-2017
</metadata>
<g transform="translate(0.000000,1024.000000) scale(0.100000,-0.100000)"
fill="#000000" stroke="none">
<path d="M3850 8689 c-789 -86 -1454 -486 -1891 -1138 -146 -218 -262 -473
-334 -736 -58 -213 -77 -346 -82 -587 l-5 -216 -62 -22 c-107 -39 -319 -149
-438 -228 -588 -391 -952 -991 -1029 -1697 -14 -134 -6 -417 16 -565 130 -849
721 -1556 1532 -1834 140 -47 252 -75 413 -103 99 -16 287 -18 3195 -21 2233
-2 3125 0 3215 8 1101 99 1934 1074 1852 2167 -37 483 -209 890 -528 1245
-276 308 -669 535 -1075 622 l-27 6 29 91 c54 165 72 310 66 504 -11 313 -88
557 -258 815 -82 124 -290 333 -412 413 -183 121 -403 209 -607 244 -129 22
-373 21 -505 -2 -192 -33 -404 -111 -538 -197 -55 -37 -62 -39 -72 -23 -204
341 -499 647 -830 860 -304 197 -634 319 -1025 381 -115 18 -481 26 -600 13z
m1061 -1954 c698 -67 1249 -316 1569 -710 236 -291 411 -706 476 -1130 23
-151 23 -461 0 -610 -77 -489 -302 -935 -637 -1260 -337 -327 -782 -501 -1428
-560 -241 -23 -831 -17 -981 9 -205 36 -313 82 -416 178 -75 70 -133 151 -174
242 -64 140 -60 34 -60 1716 0 1697 -4 1582 66 1725 93 191 273 324 506 377
156 35 811 49 1079 23z"/>
<path d="M4664 5600 c-123 -17 -213 -87 -254 -197 -20 -54 -20 -69 -18 -817
l3 -761 28 -55 c57 -110 109 -143 253 -160 114 -13 388 -13 479 1 179 25 308
95 420 226 276 323 347 764 195 1198 -104 297 -283 462 -585 541 -86 22 -125
27 -280 29 -99 2 -207 0 -241 -5z"/>
</g>
</svg>
